<svg xmlns="http://www.w3.org/2000/svg" viewBox="0 0 32 32">
  <g fill="none">
    <circle cx="16" cy="16" r="16" fill="#000000"/>
    <path d="M9.925 20.648l2.106-2.106h9.97a.44.44 0 0 0 .31-.128l1.535-1.535a.44.44 0 0 0-.31-.753h-9.97l-2.106-2.106a.44.44 0 0 0-.31-.128H6.44a.44.44 0 0 0-.31.753l1.535 1.535a.44.44 0 0 0 .31.128h4.71l2.106 2.106a.44.44 0 0 0 .31.128h9.97a.44.44 0 0 0 .31-.128l1.535-1.535a.44.44 0 0 0-.31-.753h-9.97l-2.106-2.106a.44.44 0 0 0-.31-.128H6.44a.44.44 0 0 0-.31.753l1.535 1.535a.44.44 0 0 0 .31.128h4.71l2.106 2.106a.44.44 0 0 0 .31.128h9.97a.44.44 0 0 0 .31-.128l1.535-1.535a.44.44 0 0 0-.31-.753h-9.97" fill="#00FFA3"/>
  </g>
</svg>
